<svg width="19" height="19" viewBox="0 0 19 19" fill="none" xmlns="http://www.w3.org/2000/svg">
<path d="M0 1.1875C0 0.872555 0.125111 0.57051 0.347811 0.347811C0.57051 0.125111 0.872555 0 1.1875 0H3.74419C4.02528 0.000129401 4.29721 0.0999646 4.5116 0.281746C4.726 0.463527 4.86896 0.715467 4.91506 0.99275L5.79381 6.25931C5.8358 6.51013 5.79616 6.76781 5.68072 6.99441C5.56528 7.22101 5.38015 7.40457 5.15256 7.51806L3.31431 8.436C3.9735 10.0696 4.95524 11.5535 6.20086 12.7991C7.44648 14.0448 8.93042 15.0265 10.564 15.6857L11.4831 13.8474C11.5966 13.6201 11.7799 13.4351 12.0063 13.3197C12.2326 13.2042 12.49 13.1645 12.7407 13.2062L18.0072 14.0849C18.2845 14.131 18.5365 14.274 18.7183 14.4884C18.9 14.7028 18.9999 14.9747 19 15.2558V17.8125C19 18.1274 18.8749 18.4295 18.6522 18.6522C18.4295 18.8749 18.1274 19 17.8125 19H15.4375C6.91125 19 0 12.0887 0 3.5625V1.1875Z" fill="white"/>
</svg>
