<svg width="135" height="24" viewBox="0 0 135 24" fill="none" xmlns="http://www.w3.org/2000/svg">
<path d="M42 11.9986C42.0012 16.918 45.5809 21.1067 50.4429 21.8776V14.8886H47.9041V11.9986H50.4459V9.79863C50.3322 8.75617 50.6886 7.71722 51.4182 6.96356C52.1478 6.2099 53.1751 5.81964 54.2215 5.89863C54.9726 5.91075 55.7217 5.97759 56.4631 6.09863V8.55763H55.1982C54.7627 8.50063 54.3249 8.64435 54.0081 8.94829C53.6913 9.25224 53.5298 9.68351 53.569 10.1206V11.9986H56.342L55.8987 14.8896H53.569V21.8776C58.8272 21.0472 62.5144 16.2484 61.9594 10.9577C61.4044 5.667 56.8016 1.73656 51.4854 2.0138C46.1693 2.29105 42.0008 6.67893 42 11.9986Z" fill="white"/>
<path d="M88.0063 21.036C85.5445 21.036 85.2543 21.023 84.2937 20.981C83.5445 20.9564 82.8051 20.8042 82.1072 20.531C80.8996 20.0614 79.9448 19.1069 79.4753 17.9C79.2125 17.2 79.0707 16.4605 79.056 15.713C79 14.755 79 14.441 79 12C79 9.533 79.013 9.245 79.056 8.29C79.071 7.54352 79.2128 6.80501 79.4753 6.106C79.9443 4.89753 80.9007 3.94217 82.1102 3.474C82.8093 3.2102 83.5485 3.06814 84.2957 3.054C85.2513 3 85.5656 3 88.0063 3C90.488 3 90.7732 3.013 91.7188 3.054C92.4679 3.06827 93.2091 3.21031 93.9104 3.474C95.1195 3.9427 96.0757 4.89788 96.5452 6.106C96.8125 6.81519 96.955 7.56525 96.9665 8.323C97.0225 9.281 97.0225 9.594 97.0225 12.034C97.0225 14.474 97.0085 14.794 96.9665 15.741C96.9516 16.4892 96.8095 17.2294 96.5462 17.93C96.0755 19.1377 95.1193 20.0926 93.9104 20.562C93.2101 20.8242 92.4705 20.9659 91.7228 20.981C90.7672 21.036 90.454 21.036 88.0063 21.036ZM87.9722 4.583C85.5245 4.583 85.2704 4.595 84.3147 4.638C83.7443 4.64555 83.1794 4.75074 82.6445 4.949C81.8547 5.25101 81.2298 5.87299 80.9243 6.661C80.7244 7.2013 80.6191 7.77198 80.6131 8.348C80.5601 9.317 80.5601 9.571 80.5601 12C80.5601 14.4 80.5691 14.691 80.6131 15.654C80.6221 16.2242 80.7273 16.7888 80.9243 17.324C81.2302 18.1115 81.8551 18.733 82.6445 19.035C83.179 19.2346 83.7441 19.3398 84.3147 19.346C85.2834 19.402 85.5385 19.402 87.9722 19.402C90.4269 19.402 90.6811 19.39 91.6288 19.346C92.1996 19.3391 92.7649 19.2339 93.2999 19.035C94.0849 18.7304 94.7058 18.1103 95.0111 17.326C95.2107 16.7852 95.3159 16.2143 95.3223 15.638H95.3333C95.3764 14.682 95.3764 14.427 95.3764 11.984C95.3764 9.541 95.3654 9.284 95.3223 8.329C95.3134 7.75945 95.2081 7.19551 95.0111 6.661C94.7065 5.87557 94.0856 5.25429 93.2999 4.949C92.765 4.74974 92.1996 4.64452 91.6288 4.638C90.6611 4.583 90.4079 4.583 87.9722 4.583ZM88.0063 16.619C86.1349 16.6202 84.4472 15.4947 83.7301 13.7675C83.0131 12.0402 83.408 10.0513 84.7306 8.72846C86.0533 7.40559 88.0431 7.00927 89.7722 7.72433C91.5013 8.43939 92.6291 10.125 92.6295 11.995C92.6267 14.5461 90.5591 16.614 88.0063 16.619ZM88.0063 8.993C86.3483 8.993 85.0042 10.3361 85.0042 11.993C85.0042 13.6499 86.3483 14.993 88.0063 14.993C89.6643 14.993 91.0083 13.6499 91.0083 11.993C91.0045 10.3377 89.6627 8.99685 88.0063 8.993ZM92.8096 8.28C92.2146 8.27779 91.7337 7.79459 91.7348 7.20001C91.736 6.60543 92.2186 6.12401 92.8136 6.12401C93.4086 6.12401 93.8912 6.60542 93.8923 7.2C93.8926 7.48686 93.7786 7.76202 93.5754 7.96468C93.3722 8.16733 93.0967 8.2808 92.8096 8.28Z" fill="white"/>
<path d="M132.467 6.6792C133.364 6.14329 134.035 5.29944 134.355 4.3052C133.512 4.805 132.59 5.15708 131.628 5.3462C130.295 3.93673 128.182 3.59373 126.471 4.50886C124.76 5.42399 123.873 7.37069 124.307 9.2612C120.854 9.08797 117.637 7.45812 115.457 4.7772C114.319 6.73862 114.901 9.24598 116.786 10.5072C116.104 10.4853 115.438 10.3008 114.842 9.9692C114.842 9.9872 114.842 10.0052 114.842 10.0232C114.842 12.0664 116.283 13.8263 118.287 14.2312C117.655 14.4031 116.991 14.4284 116.348 14.3052C116.911 16.0525 118.523 17.2495 120.359 17.2852C118.838 18.4783 116.96 19.1254 115.026 19.1222C114.683 19.1227 114.34 19.103 114 19.0632C115.964 20.3242 118.249 20.9936 120.584 20.9912C123.831 21.0135 126.952 19.7341 129.248 17.4392C131.545 15.1443 132.825 12.0254 132.802 8.7802C132.802 8.5942 132.798 8.4092 132.789 8.2252C133.63 7.6178 134.356 6.86535 134.933 6.0032C134.149 6.35026 133.318 6.57812 132.467 6.6792Z" fill="white"/>
<path d="M8.90386 16.5H15.0959C14.4759 19.773 13.2339 22 11.9999 22C10.8029 22 9.59986 19.906 8.96186 16.796L8.90386 16.502H15.0959H8.90386V16.5ZM3.06586 16.501H7.36986C7.73486 18.583 8.35286 20.355 9.16286 21.594C6.62039 20.8394 4.48031 19.1085 3.21086 16.78L3.06486 16.501H3.06586ZM16.6289 16.501H20.9339C20.3181 17.7204 19.4596 18.8012 18.4112 19.677C17.3628 20.5528 16.1464 21.2051 14.8369 21.594C15.5919 20.436 16.1809 18.816 16.5519 16.913L16.6279 16.501H20.9339H16.6279H16.6289ZM16.9309 10.001H21.8009C22.1381 11.6626 22.0497 13.3826 21.5439 15.001H16.8399C16.9935 13.5584 17.037 12.1062 16.9699 10.657L16.9299 9.99995H21.7999H16.9299L16.9309 10.001ZM2.19786 9.99995H7.06786C6.96358 11.4719 6.97495 12.9498 7.10186 14.42L7.15886 15H2.45586C1.94932 13.3818 1.86056 11.6617 2.19786 9.99995ZM8.57486 9.99995H15.4249C15.5391 11.4733 15.5267 12.9537 15.3879 14.425L15.3259 15H8.67386C8.49903 13.5026 8.45487 11.9929 8.54186 10.488L8.57486 9.99995H15.4249H8.57486ZM14.9449 2.57595L14.8359 2.40595C16.3223 2.8472 17.6862 3.62718 18.8203 4.68458C19.9544 5.74197 20.8278 7.04798 21.3719 8.49995H16.7799C16.4639 6.08395 15.8239 4.00795 14.9429 2.57695L14.8349 2.40695L14.9429 2.57695L14.9449 2.57595ZM9.04186 2.44295L9.16386 2.40595C8.28286 3.75695 7.62786 5.73595 7.27986 8.05995L7.21886 8.49995H2.62786C3.16445 7.06817 4.02134 5.77805 5.13302 4.72825C6.2447 3.67844 7.58173 2.89675 9.04186 2.44295L9.16386 2.40595L9.04186 2.44295ZM11.9999 2.00195C13.3189 2.00195 14.6459 4.54395 15.2139 8.18495L15.2609 8.49995H8.73886C9.27986 4.69095 10.6429 2.00195 11.9999 2.00195Z" fill="white"/>
</svg>
