<svg width="208" height="24" viewBox="0 0 208 24" fill="none" xmlns="http://www.w3.org/2000/svg">
<path d="M8.56218 4.61488C9.48689 2.33127 9.94925 1.18946 10.7004 1.03121C10.8979 0.989597 11.1021 0.989597 11.2996 1.03121C12.0508 1.18946 12.5131 2.33127 13.4378 4.61488C13.9637 5.91353 14.2266 6.56286 14.7186 7.0045C14.8566 7.12838 15.0064 7.2387 15.1659 7.33393C15.7345 7.67344 16.4444 7.73641 17.8641 7.86237C20.2674 8.07558 21.4691 8.18219 21.8361 8.86091C21.9121 9.00147 21.9637 9.15367 21.9889 9.31116C22.1106 10.0716 21.2272 10.8678 19.4604 12.4601L18.9697 12.9022C18.1437 13.6467 17.7307 14.0189 17.4918 14.4834C17.3485 14.7621 17.2525 15.0622 17.2074 15.3717C17.1324 15.8877 17.2533 16.4277 17.4952 17.5076L17.5816 17.8935C18.0154 19.8302 18.2323 20.7986 17.9615 21.2745C17.7184 21.7021 17.2704 21.9758 16.7755 21.9992C16.2246 22.0253 15.4484 21.3987 13.8959 20.1455C12.8731 19.3199 12.3617 18.9071 11.7939 18.7458C11.2751 18.5985 10.7249 18.5985 10.2061 18.7458C9.63834 18.9071 9.12693 19.3199 8.10409 20.1455C6.55161 21.3987 5.77536 22.0253 5.22446 21.9992C4.72961 21.9758 4.28165 21.7021 4.03845 21.2745C3.7677 20.7986 3.98459 19.8302 4.41837 17.8935L4.5048 17.5076C4.74668 16.4277 4.86762 15.8877 4.79257 15.3717C4.74755 15.0622 4.65146 14.7621 4.50816 14.4834C4.26928 14.0189 3.85627 13.6467 3.03026 12.9023L2.53962 12.4601C0.772817 10.8678 -0.110586 10.0716 0.0110717 9.31116C0.0362681 9.15367 0.0879408 9.00147 0.163941 8.8609C0.5309 8.18219 1.73257 8.07558 4.1359 7.86237C5.55561 7.73641 6.26547 7.67344 6.83411 7.33393C6.99361 7.2387 7.14341 7.12838 7.2814 7.0045C7.77339 6.56286 8.03632 5.91353 8.56218 4.61488Z" fill="white"/>
<path d="M37.5622 4.61488C38.4869 2.33127 38.9492 1.18946 39.7004 1.03121C39.8979 0.989597 40.1021 0.989597 40.2996 1.03121C41.0508 1.18946 41.5131 2.33127 42.4378 4.61488C42.9637 5.91353 43.2266 6.56286 43.7186 7.0045C43.8566 7.12838 44.0064 7.2387 44.1659 7.33393C44.7345 7.67344 45.4444 7.73641 46.8641 7.86237C49.2674 8.07558 50.4691 8.18219 50.8361 8.86091C50.9121 9.00147 50.9637 9.15367 50.9889 9.31116C51.1106 10.0716 50.2272 10.8678 48.4604 12.4601L47.9697 12.9022C47.1437 13.6467 46.7307 14.0189 46.4918 14.4834C46.3485 14.7621 46.2525 15.0622 46.2074 15.3717C46.1324 15.8877 46.2533 16.4277 46.4952 17.5076L46.5816 17.8935C47.0154 19.8302 47.2323 20.7986 46.9615 21.2745C46.7184 21.7021 46.2704 21.9758 45.7755 21.9992C45.2246 22.0253 44.4484 21.3987 42.8959 20.1455C41.8731 19.3199 41.3617 18.9071 40.7939 18.7458C40.2751 18.5985 39.7249 18.5985 39.2061 18.7458C38.6383 18.9071 38.1269 19.3199 37.1041 20.1455C35.5516 21.3987 34.7754 22.0253 34.2245 21.9992C33.7296 21.9758 33.2816 21.7021 33.0385 21.2745C32.7677 20.7986 32.9846 19.8302 33.4184 17.8935L33.5048 17.5076C33.7467 16.4277 33.8676 15.8877 33.7926 15.3717C33.7475 15.0622 33.6515 14.7621 33.5082 14.4834C33.2693 14.0189 32.8563 13.6467 32.0303 12.9023L31.5396 12.4601C29.7728 10.8678 28.8894 10.0716 29.0111 9.31116C29.0363 9.15367 29.0879 9.00147 29.1639 8.8609C29.5309 8.18219 30.7326 8.07558 33.1359 7.86237C34.5556 7.73641 35.2655 7.67344 35.8341 7.33393C35.9936 7.2387 36.1434 7.12838 36.2814 7.0045C36.7734 6.56286 37.0363 5.91353 37.5622 4.61488Z" fill="white"/>
<path d="M66.173 4.61488C67.0557 2.33127 67.497 1.18946 68.214 1.03121C68.4026 0.989597 68.5974 0.989597 68.786 1.03121C69.503 1.18946 69.9443 2.33127 70.827 4.61488C71.329 5.91353 71.5799 6.56286 72.0496 7.0045C72.1813 7.12838 72.3243 7.2387 72.4765 7.33393C73.0193 7.67344 73.6969 7.73641 75.0521 7.86237C77.3462 8.07558 78.4932 8.18219 78.8435 8.86091C78.9161 9.00147 78.9654 9.15367 78.9894 9.31116C79.1056 10.0716 78.2623 10.8678 76.5758 12.4601L76.1075 12.9022C75.319 13.6467 74.9248 14.0189 74.6968 14.4834C74.56 14.7621 74.4683 15.0622 74.4253 15.3717C74.3536 15.8877 74.4691 16.4277 74.7 17.5076L74.7825 17.8935C75.1965 19.8302 75.4036 20.7986 75.1451 21.2745C74.913 21.7021 74.4854 21.9758 74.013 21.9992C73.4872 22.0253 72.7462 21.3987 71.2643 20.1455C70.2879 19.3199 69.7998 18.9071 69.2578 18.7458C68.7626 18.5985 68.2374 18.5985 67.7422 18.7458C67.2002 18.9071 66.7121 19.3199 65.7357 20.1455C64.2538 21.3987 63.5128 22.0253 62.987 21.9992C62.5146 21.9758 62.087 21.7021 61.8549 21.2745C61.5964 20.7986 61.8035 19.8302 62.2175 17.8935L62.3 17.5076C62.5309 16.4277 62.6464 15.8877 62.5747 15.3717C62.5317 15.0622 62.44 14.7621 62.3032 14.4834C62.0752 14.0189 61.681 13.6467 60.8925 12.9023L60.4242 12.4601C58.7377 10.8678 57.8944 10.0716 58.0106 9.31116C58.0346 9.15367 58.0839 9.00147 58.1565 8.8609C58.5068 8.18219 59.6538 8.07558 61.9479 7.86237C63.3031 7.73641 63.9807 7.67344 64.5235 7.33393C64.6757 7.2387 64.8187 7.12838 64.9504 7.0045C65.4201 6.56286 65.671 5.91353 66.173 4.61488Z" fill="white"/>
<path d="M94.5622 4.61488C95.4869 2.33127 95.9492 1.18946 96.7004 1.03121C96.8979 0.989597 97.1021 0.989597 97.2996 1.03121C98.0508 1.18946 98.5131 2.33127 99.4378 4.61488C99.9637 5.91353 100.227 6.56286 100.719 7.0045C100.857 7.12838 101.006 7.2387 101.166 7.33393C101.735 7.67344 102.444 7.73641 103.864 7.86237C106.267 8.07558 107.469 8.18219 107.836 8.86091C107.912 9.00147 107.964 9.15367 107.989 9.31116C108.111 10.0716 107.227 10.8678 105.46 12.4601L104.97 12.9022C104.144 13.6467 103.731 14.0189 103.492 14.4834C103.349 14.7621 103.252 15.0622 103.207 15.3717C103.132 15.8877 103.253 16.4277 103.495 17.5076L103.582 17.8935C104.015 19.8302 104.232 20.7986 103.962 21.2745C103.718 21.7021 103.27 21.9758 102.776 21.9992C102.225 22.0253 101.448 21.3987 99.8959 20.1455C98.8731 19.3199 98.3617 18.9071 97.7939 18.7458C97.2751 18.5985 96.7249 18.5985 96.2061 18.7458C95.6383 18.9071 95.1269 19.3199 94.1041 20.1455C92.5516 21.3987 91.7754 22.0253 91.2245 21.9992C90.7296 21.9758 90.2816 21.7021 90.0385 21.2745C89.7677 20.7986 89.9846 19.8302 90.4184 17.8935L90.5048 17.5076C90.7467 16.4277 90.8676 15.8877 90.7926 15.3717C90.7475 15.0622 90.6515 14.7621 90.5082 14.4834C90.2693 14.0189 89.8563 13.6467 89.0303 12.9023L88.5396 12.4601C86.7728 10.8678 85.8894 10.0716 86.0111 9.31116C86.0363 9.15367 86.0879 9.00147 86.1639 8.8609C86.5309 8.18219 87.7326 8.07558 90.1359 7.86237C91.5556 7.73641 92.2655 7.67344 92.8341 7.33393C92.9936 7.2387 93.1434 7.12838 93.2814 7.0045C93.7734 6.56286 94.0363 5.91353 94.5622 4.61488Z" fill="white"/>
<path d="M162.912 23.4194C161.893 22.1343 161.032 20.6304 160.328 18.9077C159.624 17.1851 159.271 15.4009 159.271 13.5552C159.271 11.9282 159.535 10.3696 160.061 8.87939C160.676 7.1499 161.626 5.42725 162.912 3.71143H164.234C163.407 5.1333 162.86 6.14844 162.594 6.75684C162.177 7.7002 161.849 8.68457 161.609 9.70996C161.315 10.9883 161.168 12.2734 161.168 13.5654C161.168 16.8535 162.19 20.1382 164.234 23.4194H162.912ZM165.988 5.93652V4.1626H175.719V5.59814C174.762 6.6167 173.812 7.97021 172.868 9.65869C171.932 11.3472 171.207 13.0835 170.694 14.8677C170.325 16.1255 170.089 17.5029 169.987 19H168.09C168.11 17.8174 168.343 16.3887 168.787 14.7139C169.231 13.0391 169.867 11.4258 170.694 9.87402C171.528 8.31543 172.414 7.00293 173.35 5.93652H165.988ZM187.131 7.64893L185.296 7.79248C185.132 7.06787 184.899 6.5415 184.599 6.21338C184.1 5.68701 183.484 5.42383 182.753 5.42383C182.165 5.42383 181.649 5.58789 181.205 5.91602C180.624 6.33984 180.166 6.9585 179.831 7.77197C179.496 8.58545 179.321 9.74414 179.308 11.248C179.752 10.5713 180.295 10.0688 180.938 9.74072C181.581 9.4126 182.254 9.24854 182.958 9.24854C184.188 9.24854 185.234 9.70312 186.096 10.6123C186.964 11.5146 187.398 12.6836 187.398 14.1191C187.398 15.0625 187.193 15.9409 186.783 16.7544C186.379 17.561 185.822 18.1797 185.111 18.6104C184.4 19.041 183.594 19.2563 182.691 19.2563C181.153 19.2563 179.899 18.6924 178.928 17.5645C177.958 16.4297 177.472 14.5635 177.472 11.9658C177.472 9.06055 178.009 6.94824 179.082 5.62891C180.019 4.48047 181.28 3.90625 182.866 3.90625C184.048 3.90625 185.016 4.23779 185.768 4.90088C186.526 5.56396 186.981 6.47998 187.131 7.64893ZM179.595 14.1294C179.595 14.7651 179.728 15.3735 179.995 15.9546C180.268 16.5356 180.647 16.98 181.133 17.2876C181.618 17.5884 182.127 17.7388 182.661 17.7388C183.44 17.7388 184.11 17.4243 184.67 16.7954C185.231 16.1665 185.511 15.312 185.511 14.2319C185.511 13.1929 185.234 12.376 184.681 11.7812C184.127 11.1797 183.43 10.8789 182.589 10.8789C181.755 10.8789 181.047 11.1797 180.466 11.7812C179.885 12.376 179.595 13.1587 179.595 14.1294ZM189.244 15.0625L191.182 14.8984C191.325 15.8418 191.657 16.5527 192.176 17.0312C192.703 17.5029 193.335 17.7388 194.073 17.7388C194.962 17.7388 195.714 17.4038 196.329 16.7339C196.944 16.064 197.252 15.1753 197.252 14.0679C197.252 13.0151 196.955 12.1846 196.36 11.5762C195.772 10.9678 195 10.6636 194.042 10.6636C193.448 10.6636 192.911 10.8003 192.433 11.0737C191.954 11.3403 191.578 11.689 191.305 12.1196L189.572 11.894L191.028 4.17285H198.503V5.93652H192.504L191.694 9.97656C192.597 9.34766 193.543 9.0332 194.535 9.0332C195.847 9.0332 196.955 9.48779 197.857 10.397C198.759 11.3062 199.21 12.4751 199.21 13.9038C199.21 15.2642 198.814 16.4399 198.021 17.4312C197.057 18.6479 195.741 19.2563 194.073 19.2563C192.706 19.2563 191.588 18.8735 190.72 18.1079C189.859 17.3423 189.367 16.3271 189.244 15.0625ZM202.656 23.4194H201.333C203.377 20.1382 204.399 16.8535 204.399 13.5654C204.399 12.2803 204.252 11.0054 203.958 9.74072C203.726 8.71533 203.401 7.73096 202.984 6.7876C202.717 6.17236 202.167 5.14697 201.333 3.71143H202.656C203.941 5.42725 204.891 7.1499 205.506 8.87939C206.033 10.3696 206.296 11.9282 206.296 13.5552C206.296 15.4009 205.94 17.1851 205.229 18.9077C204.525 20.6304 203.667 22.1343 202.656 23.4194Z" fill="white"/>
<path d="M124.542 19V15.9751H118.39V13.4526L124.911 3.90625H127.331V13.4424H129.197V15.9751H127.331V19H124.542ZM124.542 13.4424V8.30518L121.086 13.4424H124.542ZM131.197 19V16.1187H134.078V19H131.197ZM141.297 3.90625C142.753 3.90625 143.891 4.42578 144.711 5.46484C145.689 6.69531 146.178 8.73584 146.178 11.5864C146.178 14.4302 145.686 16.4741 144.701 17.7183C143.888 18.7437 142.753 19.2563 141.297 19.2563C139.834 19.2563 138.655 18.6958 137.759 17.5747C136.864 16.4468 136.416 14.4404 136.416 11.5557C136.416 8.72559 136.908 6.68848 137.893 5.44434C138.706 4.41895 139.841 3.90625 141.297 3.90625ZM141.297 6.29541C140.948 6.29541 140.637 6.4082 140.364 6.63379C140.09 6.85254 139.878 7.24902 139.728 7.82324C139.53 8.56836 139.431 9.82275 139.431 11.5864C139.431 13.3501 139.52 14.5635 139.697 15.2266C139.875 15.8828 140.097 16.3203 140.364 16.5391C140.637 16.7578 140.948 16.8672 141.297 16.8672C141.646 16.8672 141.957 16.7578 142.23 16.5391C142.503 16.3135 142.715 15.9136 142.866 15.3394C143.064 14.6011 143.163 13.3501 143.163 11.5864C143.163 9.82275 143.074 8.61279 142.896 7.95654C142.719 7.29346 142.493 6.85254 142.22 6.63379C141.953 6.4082 141.646 6.29541 141.297 6.29541Z" fill="white"/>
</svg>
