<svg width="18" height="22" viewBox="0 0 18 22" fill="none" xmlns="http://www.w3.org/2000/svg">
<path d="M8.99996 22C7.37602 20.6835 5.87078 19.2402 4.49998 17.6852C2.44285 15.35 1.13613e-06 11.8723 1.13613e-06 8.55833C-0.00182221 5.09715 2.19116 1.97605 5.55563 0.651444C8.9201 -0.673163 12.7929 0.0598189 15.3668 2.50835C17.0594 4.10988 18.0075 6.28838 18 8.55833C18 11.8723 15.5571 15.35 13.4999 17.6852C12.1291 19.2402 10.6239 20.6835 8.99996 22ZM8.99996 4.89242C7.62194 4.89242 6.3486 5.59114 5.65959 6.72537C4.97058 7.85961 4.97058 9.25705 5.65959 10.3913C6.3486 11.5255 7.62194 12.2242 8.99996 12.2242C11.1302 12.2242 12.8571 10.583 12.8571 8.55833C12.8571 6.5337 11.1302 4.89242 8.99996 4.89242Z" fill="white"/>
</svg>
